# xmcd
#
# Track frame offsets:
# 150
# 24414
# 27695
# 46832
# 71511
# 94604
# 101999
#
# Disc length: 2569 seconds
#
# Revision: 1
# Processed by: cddbd v1.5.1PL0 Copyright (c) Steve Scherf et al.
# Submitted via: Easy CD Ripper 1.45
#
DISCID=570a0707
DTITLE=Dirk Dollar - Jammertal EP
DYEAR=2005
DGENRE=Polka
TTITLE0=Fönsterbänk
TTITLE1=Dirk Dollar - Fönsterwalzer
TTITLE2=Dirk Dollar - Intermezzo Fatale
TTITLE3=Dirk Dollar - Jammertal
TTITLE4=Dirk Dollar - Musica Place
TTITLE5=Dirk Dollar - Sibiu
TTITLE6=Dirk Dollar - Heinz (Live)
EXTD=None
EXTT0=
EXTT1=
EXTT2=
EXTT3=
EXTT4=
EXTT5=
EXTT6=
PLAYORDER=
